<?xml version="1.0" encoding="utf-8"?>
<svg xmlns="http://www.w3.org/2000/svg" width="25" height="25" viewBox="0 0 30 30" version="1.1">
  <g fill="#fff" transform="translate(0,-289.0625)">
    <path
      d="M 25.607422 4.3925781 L 4.3925781 25.607422 L 5.8066406 27.021484 L 9.1210938 23.707031 A 2 2 0 0 0 10.988281 25 A 2 2 0 0 0 12.988281 23 A 2 2 0 0 0 11.697266 21.130859 L 12.828125 20 L 22.988281 20 L 22.988281 18 L 14.828125 18 L 16.828125 16 L 20.488281 16 C 21.042281 16 21.234967 15.4927 21.488281 15 L 24.955078 8.2578125 C 25.019878 8.1317781 25.022638 7.9880711 24.984375 7.84375 L 27.021484 5.8066406 L 25.607422 4.3925781 z M 4.9882812 5 L 4.9882812 7 L 6.4042969 7 L 10.429688 14.904297 L 9.0996094 17.664062 C 9.0235414 17.82199 9.0056559 17.990239 9.0117188 18.160156 L 20.171875 7 L 8.6503906 7 L 7.6328125 5 L 5.9882812 5 L 5.3867188 5 L 4.9882812 5 z M 20.988281 21 A 2 2 0 0 0 18.988281 23 A 2 2 0 0 0 20.988281 25 A 2 2 0 0 0 22.988281 23 A 2 2 0 0 0 20.988281 21 z "
      transform="translate(0,289.0625)"></path>
  </g>
</svg>